<?xml version="1.0" encoding="utf-8"?>
<!-- Generator: Adobe Illustrator 25.3.1, SVG Export Plug-In . SVG Version: 6.00 Build 0)  -->
<svg version="1.1" id="레이어_1" xmlns="http://www.w3.org/2000/svg" xmlns:xlink="http://www.w3.org/1999/xlink" x="0px"
	 y="0px" viewBox="0 0 360.8 90" style="enable-background:new 0 0 360.8 90;" xml:space="preserve">
<style type="text/css">
	.st0{fill:url(#SVGID_1_);}
	.st1{fill:#FFFFFF;}
	.st2{fill:#262626;}
</style>
<g>
	<g>
		<g>
			
				<radialGradient id="SVGID_1_" cx="114.8561" cy="400.4705" r="79.6025" gradientTransform="matrix(0.8611 0.5085 -0.4977 0.8427 114.2691 -367.8159)" gradientUnits="userSpaceOnUse">
				<stop  offset="0" style="stop-color:#FCD400"/>
				<stop  offset="0.2" style="stop-color:#F7B200"/>
				<stop  offset="0.5" style="stop-color:#EC6F00"/>
				<stop  offset="0.75" style="stop-color:#E7361C"/>
				<stop  offset="1" style="stop-color:#E50E20"/>
			</radialGradient>
			<path class="st0" d="M80.5,45c0-9.4-0.9-17-1.3-18.6c-0.4-1.5-0.4-1.9-0.8-3.1c-0.4-1.2-1.3-2.1-2.2-2.7c-0.3-0.2-6.8-5-15.5-10
				C52.6,6.1,45.9,3,44.8,2.5s-3-1-3.9-1c-0.9,0-2.1,0.1-4,1C35,3.4,26.3,7.6,21,10.6c-8.1,4.7-14.5,9.2-15.5,10
				c-1.2,0.7-2.2,2-2.5,2.7s-0.9,2-1,3.1c0,0.2-1,7.9-1,18.6s0.8,17.1,1,18.6c0.3,1.5,0.5,2.4,1,3.1s1.4,1.9,2.5,2.7
				c1,0.8,7.4,5.3,15.5,10c5.3,3,14.2,7.5,15.8,8.1c1.6,0.7,2.9,1.1,4,1.1c1.1,0,2-0.2,3.8-1.1c1.8-0.8,7.9-3.6,15.8-8.1
				c8.7-5,15.3-9.8,15.5-10c1-0.6,1.9-1.7,2.4-2.7s0.6-1.8,0.8-3.1C79.6,62.3,80.5,54.4,80.5,45z"/>
			<path class="st1" d="M51.4,61.7c0,0.5-0.5,0.7-1,1c-0.5,0.3-3,1.4-7.1,2.2C39.3,65.5,32.6,66,32.6,66c-0.5,0-1-0.4-1-1l0,0
				c0-0.5,0.4-1,1-1c0,0,6.5-0.6,10.5-1.3c4-0.8,6.7-2.1,7.4-2C51.1,60.7,51.4,61.1,51.4,61.7C51.4,61.7,51.4,61.1,51.4,61.7z"/>
			<path class="st1" d="M51.4,66.9c0,0.5-0.5,0.7-1,1c-0.5,0.3-3,1.4-7.1,2.2c-4.1,0.7-10.8,1.2-10.8,1.2c-0.5,0-1-0.4-1-1l0,0
				c0-0.5,0.4-1,1-1c0,0,6.5-0.6,10.5-1.3c4-0.8,6.7-2.1,7.4-2.1C51.1,65.9,51.4,66.3,51.4,66.9C51.4,66.9,51.4,66.3,51.4,66.9z"/>
			<path class="st1" d="M41.5,18.6c-11.2,0-20.2,9-20.2,20.2c0,7.9,4.5,14.8,11.2,18.1c0,0,0.3,0.1,0.7,0.2c0.4,0.1,1.1-0.2,1.3-0.7
				c0.2-0.5,0-1.1-0.5-1.2c0,0-0.8-0.3-2.2-1.1l-0.2-0.1c-4.9-3.3-8.1-8.8-8.1-15.1c0-1.4,0.1-2.7,0.4-4c0.7,0.4,1.7,0.7,2.7,0.8
				C24.7,42.7,26.4,48,28.3,50c2.5,2.5,3.2-2,3.5-3.8c0.1-0.5,0.1-1,0.2-1.5c0.2,1.4,0.6,2.7,1.2,3.5c1.5,1.8,1.2-0.3,1.2-0.7
				c0-0.3-0.2-0.9-0.2-1c0.2,0.1,1.6-5.9,2.2-6.2c0.9-0.5,1,1.5,0.7,3.7c-0.3,2.2,0.6,4.4,1.3,4.2c0.4-0.2,0.7-1,0.8-2.3
				c0.8-0.6,2.6-5.2,3.2-5.6c0.9-0.5,1,1.5,0.7,3.7c-0.1,0.6-1.7,6.9,1.3,6.5c1.5-0.2,2.8-2.7,3.7-4.8c0.5-1.3,0.5-1.7,1.3-3
				c0,0,0.1,0.2,0.2,0.5c0.6,1,1.3,1.7,2.6,2.6c0.1,0.1,0.1,0.1,0.2,0.2c-0.8,0.5-2.2,1.3-2.5,2.1c-0.3,0.8,0.1,1.5,0.4,1.8
				c1,1.3,3.7,0.7,4.6-1.3c0.7-1.6,0.3-2.6-0.3-3.3c0,0,0.9-0.5,1.4-0.8c1.5-0.8,2.7-1.7,3.4-2.2c-1.1,5.7-4.9,10.4-10,12.9
				c-1.7,0.8-4.5,1.5-5.6,1.6C42.7,57,35.3,58,35.3,58c-1.6,0.2-2.7,0.3-2.7,0.3c-0.5,0-1,0.4-1,1c0,0.5,0.4,1,1,1
				c0,0,8.1-0.8,9-0.9s3.8-0.6,4.7-0.8c8.9-2.1,15.5-10.1,15.5-19.6C61.7,27.6,52.7,18.6,41.5,18.6z M51.2,49.3
				c-0.8-0.8-0.3-1.8,1.5-3.1C55,48.4,52,50.1,51.2,49.3z M56.7,43.7c-0.3,0.1-2.3,1-2.6,1.2c-1-0.7-1.6-0.9-2.6-1.6
				c-1-0.8-1.1-4.3,3.9-3.1c1.8,0.4,0.5-0.6,0.5-0.6s-4.1-2.8-6.1,0c-0.7,1-0.8,1.8-0.7,2.7c-0.3,0.2-1.4,2.2-2,3.4
				c-0.9,1.8-2.7,3-2.3,1.1c0.3-1.9,0.5-3.1,0.5-5.1c0-4.2-2.8-3.2-2.8-3.2c-1.5,0.4-2.7,4-3.3,5.8c0-0.3,0.1-2.2,0.1-2.6
				c0-4.2-2.8-3.2-2.8-3.2c-2,0.1-2.4,4.3-2.5,6.3c-0.2-1.7-0.4-3.7-0.1-4.5c0.5-1.7-1.6-2-1.8-0.3c-0.1,0.8-0.2,2.4-0.1,4
				c-0.1,0-0.1,0.5-0.3,1.3c-0.2,0.8-1,5.6-2.3,3.7c-1.8-2.5-1.5-9.1-0.8-13.1c0.6,0,1.2-0.1,1.7-0.3c2-0.5,6.9-2.9,10.5-2.9
				s4.2,0.9,5.4,2.6c0.4,0.6-0.2-2.9-4.7-2.9c-4.5,0-6.5,1.4-11.4,2.7c-0.5,0.1-0.9,0.2-1.4,0.2c0.1-0.4,0.1-0.7,0.2-1
				c0.8-3.7,3.2-5.2,2-6c-1.2-0.8-2,1.3-2,1.3c-1,2-1.7,3.9-2.2,5.7c-1.1-0.1-2-0.5-2.7-0.7c2-7.9,9.1-13.7,17.6-13.7
				c10,0,18.2,8.1,18.2,18.2c0,1.2-0.1,2.3-0.3,3.4C58.8,42.5,57.9,43.1,56.7,43.7z"/>
		</g>
	</g>
	<g>
		<g>
			<path class="st2" d="M92.5,31.5h22.3v6.2h-7.2v22.8h-7.8V37.7h-7.3V31.5z"/>
			<path class="st2" d="M129.6,60.5l-4.9-13.1v13.1h-7.5v-29h7.2l8,21.3l8-21.3h7.2v29h-7.5V47.4l-4.9,13.1
				C135.2,60.5,129.6,60.5,129.6,60.5z"/>
			<path class="st2" d="M161.9,61c-7.1,0-10.9-3.7-10.9-8.8v-0.6h7.8v0.6c0,1.7,1.1,2.8,3.1,2.8s3.1-1.2,3.1-2.8
				c0-1.7-1-2.7-3.7-3.2l-2.2-0.5c-5-1-8.4-3.6-8.4-8.9c0-5,3.9-8.6,10.5-8.6c6.8,0,10.5,3.8,10.5,8.3v0.5h-7.8v-0.5
				c0-1.5-1-2.4-2.7-2.4c-1.8,0-2.7,0.9-2.7,2.4c0,1.6,1.1,2.5,3.9,3.1l2.2,0.4c5.2,1.1,8.2,4,8.2,9.1C172.8,57.1,169.2,61,161.9,61
				z"/>
			<path class="st2" d="M196.3,57.5c-2.1,2.3-5.1,3.5-9,3.5s-6.9-1.2-9-3.5c-2.4-2.7-3.2-6.5-3.2-11.5c0-4.9,0.8-8.8,3.2-11.5
				c2.1-2.3,5.1-3.5,9-3.5s6.9,1.1,9,3.5c2.3,2.7,3.1,6.6,3.1,11.5C199.4,51,198.6,54.8,196.3,57.5z M190.5,38.8
				c-0.8-1.1-1.8-1.5-3.2-1.5s-2.4,0.5-3.1,1.5c-0.9,1.3-1.2,3.3-1.2,7.2c0,4,0.3,5.9,1.2,7.3c0.8,1.1,1.7,1.5,3.1,1.5
				s2.4-0.5,3.2-1.5c0.9-1.3,1.1-3.3,1.1-7.3C191.6,42.1,191.3,40.1,190.5,38.8z"/>
			<path class="st2" d="M202.6,31.5h7.8v22.8h11.3v6.2h-19.1L202.6,31.5L202.6,31.5z"/>
			<path class="st2" d="M222.9,49.7V31.5h7.8v18.6c0,3.3,1.4,4.7,3.8,4.7s3.8-1.4,3.8-4.7V31.5h7.8v18.1c0,7-3.7,11.3-11.6,11.3
				S222.9,56.7,222.9,49.7z"/>
			<path class="st2" d="M248.2,31.5h22.3v6.2h-7.2v22.8h-7.8V37.7h-7.3L248.2,31.5L248.2,31.5z"/>
			<path class="st2" d="M280.6,60.5h-7.8v-29h7.8V60.5z"/>
			<path class="st2" d="M304.9,57.5c-2,2.3-5.1,3.5-9,3.5c-3.9,0-6.9-1.2-9-3.5c-2.4-2.7-3.2-6.5-3.2-11.5c0-4.9,0.8-8.8,3.2-11.5
				c2-2.3,5.1-3.5,9-3.5s6.9,1.1,9,3.5c2.3,2.7,3.1,6.6,3.1,11.5C308,51,307.2,54.8,304.9,57.5z M299.1,38.8
				c-0.8-1.1-1.8-1.5-3.2-1.5s-2.4,0.5-3.1,1.5c-0.9,1.3-1.2,3.3-1.2,7.2c0,4,0.3,5.9,1.2,7.3c0.8,1.1,1.7,1.5,3.1,1.5
				s2.4-0.5,3.2-1.5c0.9-1.3,1.1-3.3,1.1-7.3C300.2,42.1,299.9,40.1,299.1,38.8z"/>
			<path class="st2" d="M318.7,44.7v15.8h-7.5v-29h7.5l7.2,15.9V31.5h7.5v29h-7.5L318.7,44.7z"/>
			<path class="st2" d="M347.7,61c-7,0-10.9-3.7-10.9-8.8v-0.6h7.8v0.6c0,1.7,1,2.8,3.1,2.8s3.1-1.2,3.1-2.8c0-1.7-1-2.7-3.7-3.2
				l-2.2-0.5c-5-1-8.4-3.6-8.4-8.9c0-5,3.9-8.6,10.5-8.6c6.8,0,10.5,3.8,10.5,8.3v0.5h-7.8v-0.5c0-1.5-1-2.4-2.7-2.4
				c-1.8,0-2.7,0.9-2.7,2.4c0,1.6,1.1,2.5,3.9,3.1l2.2,0.4c5.2,1.1,8.2,4,8.2,9.1C358.6,57.1,355,61,347.7,61z"/>
		</g>
	</g>
</g>
</svg>
