<?xml version="1.0" encoding="utf-8"?>
<!-- Generator: Adobe Illustrator 25.3.1, SVG Export Plug-In . SVG Version: 6.00 Build 0)  -->
<svg version="1.1" id="레이어_1" xmlns="http://www.w3.org/2000/svg" xmlns:xlink="http://www.w3.org/1999/xlink" x="0px"
	 y="0px" viewBox="0 0 360.81 90" style="enable-background:new 0 0 360.81 90;" xml:space="preserve">
<style type="text/css">
	.st0{fill:url(#SVGID_1_);}
	.st1{fill:#FFFFFF;}
</style>
<g>
	<g>
		<g>
			
				<radialGradient id="SVGID_1_" cx="12.7484" cy="66.092" r="79.6025" gradientTransform="matrix(0.8611 0.5085 0.4977 -0.8427 -30.0141 77.2781)" gradientUnits="userSpaceOnUse">
				<stop  offset="0" style="stop-color:#FCD400"/>
				<stop  offset="0.2" style="stop-color:#F7B200"/>
				<stop  offset="0.5" style="stop-color:#EC6F00"/>
				<stop  offset="0.75" style="stop-color:#E7361C"/>
				<stop  offset="1" style="stop-color:#E50E20"/>
			</radialGradient>
			<path class="st0" d="M80.49,45.01c0-9.39-0.92-17.05-1.31-18.6c-0.39-1.54-0.44-1.92-0.85-3.11c-0.41-1.19-1.29-2.06-2.25-2.67
				c-0.26-0.21-6.8-4.99-15.53-10.01C52.61,6.06,45.91,3,44.81,2.49s-3.04-1.05-3.94-1.05c-0.89,0-2.14,0.13-4.01,1.05
				C34.99,3.4,26.3,7.6,21.03,10.63c-8.1,4.66-14.46,9.23-15.5,10c-1.17,0.73-2.17,2.03-2.51,2.67s-0.91,1.95-0.99,3.11
				C1.99,26.65,1,34.35,1,45.01s0.77,17.11,1.02,18.6c0.26,1.49,0.53,2.36,0.96,3.11s1.36,1.94,2.53,2.67
				c1.03,0.76,7.41,5.34,15.51,9.99c5.27,3.03,14.22,7.46,15.84,8.14c1.62,0.69,2.91,1.05,4.01,1.05c1.11,0,2.01-0.2,3.85-1.06
				c1.84-0.85,7.9-3.56,15.83-8.12c8.74-5.02,15.28-9.79,15.53-10.01c0.96-0.61,1.93-1.74,2.42-2.67s0.6-1.77,0.84-3.11
				C79.58,62.26,80.49,54.4,80.49,45.01z"/>
			<path class="st1" d="M51.44,61.67c0,0.53-0.5,0.69-0.96,0.97c-0.47,0.28-2.95,1.45-7.06,2.16c-4.1,0.72-10.84,1.22-10.84,1.22
				c-0.53,0-0.97-0.43-0.97-0.97l0,0c0-0.53,0.44-0.97,0.97-0.97c0,0,6.5-0.59,10.52-1.33c4.03-0.75,6.71-2.08,7.37-2.05
				C51.14,60.73,51.44,61.14,51.44,61.67C51.44,61.67,51.44,61.14,51.44,61.67z"/>
			<path class="st1" d="M51.44,66.89c0,0.53-0.5,0.69-0.96,0.97c-0.47,0.28-2.95,1.45-7.06,2.16c-4.1,0.72-10.84,1.22-10.84,1.22
				c-0.53,0-0.97-0.43-0.97-0.97l0,0c0-0.53,0.44-0.97,0.97-0.97c0,0,6.5-0.58,10.52-1.33c4.03-0.75,6.71-2.08,7.37-2.06
				C51.14,65.94,51.44,66.35,51.44,66.89C51.44,66.89,51.44,66.35,51.44,66.89z"/>
			<path class="st1" d="M41.53,18.59c-11.16,0-20.21,9.05-20.21,20.21c0,7.91,4.55,14.76,11.18,18.08c0,0,0.26,0.12,0.66,0.22
				c0.39,0.1,1.12-0.19,1.31-0.69c0.2-0.5-0.05-1.06-0.54-1.25c0,0-0.78-0.34-2.2-1.08l-0.24-0.14c-4.89-3.26-8.12-8.82-8.12-15.14
				c0-1.36,0.15-2.68,0.44-3.95c0.71,0.42,1.68,0.65,2.67,0.75c-1.8,7.11-0.11,12.45,1.83,14.41c2.48,2.5,3.19-2.05,3.53-3.8
				c0.09-0.5,0.15-0.96,0.25-1.47c0.17,1.4,0.56,2.72,1.23,3.55c1.45,1.78,1.25-0.33,1.21-0.68c-0.03-0.35-0.19-0.88-0.18-1.02
				c0.16,0.07,1.58-5.89,2.15-6.22c0.86-0.5,0.99,1.49,0.66,3.73c-0.34,2.24,0.61,4.43,1.33,4.16c0.39-0.15,0.66-1,0.8-2.28
				c0.78-0.64,2.56-5.25,3.19-5.62c0.86-0.5,0.99,1.49,0.65,3.73c-0.09,0.58-1.67,6.93,1.27,6.46c1.51-0.25,2.82-2.69,3.69-4.79
				c0.53-1.26,0.5-1.71,1.3-3.05c0,0,0.06,0.23,0.21,0.48c0.63,0.97,1.34,1.65,2.64,2.62c0.07,0.06,0.14,0.11,0.22,0.17
				c-0.79,0.54-2.15,1.3-2.48,2.08c-0.35,0.83,0.1,1.48,0.38,1.81c1.01,1.27,3.66,0.73,4.56-1.33c0.68-1.57,0.35-2.56-0.33-3.26
				c0,0,0.93-0.5,1.42-0.76c1.47-0.78,2.69-1.67,3.37-2.22c-1.12,5.69-4.89,10.43-9.98,12.88c-1.73,0.83-4.53,1.49-5.61,1.64
				C42.72,56.97,35.3,58,35.3,58c-1.59,0.17-2.71,0.27-2.71,0.27c-0.53,0-0.97,0.43-0.97,0.97c0,0.53,0.44,0.97,0.97,0.97
				c0,0,8.11-0.79,8.95-0.93s3.81-0.59,4.71-0.85c8.89-2.12,15.5-10.11,15.5-19.65C61.73,27.64,52.69,18.59,41.53,18.59z
				 M51.18,49.35c-0.77-0.77-0.33-1.84,1.52-3.12C55.04,48.44,51.96,50.12,51.18,49.35z M56.74,43.71
				c-0.27,0.14-2.27,1.04-2.59,1.22c-0.95-0.73-1.61-0.87-2.61-1.64c-1.01-0.77-1.08-4.28,3.94-3.08c1.81,0.43,0.49-0.61,0.49-0.61
				s-4.08-2.75-6.09,0.01c-0.71,0.97-0.82,1.8-0.67,2.65c-0.28,0.2-1.42,2.19-2.02,3.41c-0.9,1.81-2.65,3.01-2.32,1.08
				c0.33-1.93,0.51-3.07,0.51-5.14c0-4.23-2.85-3.21-2.85-3.21c-1.53,0.42-2.72,3.97-3.26,5.78c0-0.32,0.13-2.22,0.13-2.57
				c0-4.23-2.85-3.21-2.85-3.21c-1.99,0.12-2.42,4.26-2.52,6.29c-0.22-1.69-0.38-3.65-0.13-4.54c0.5-1.74-1.61-1.95-1.83-0.34
				c-0.11,0.79-0.22,2.38-0.11,4.03c-0.08,0.02-0.11,0.48-0.29,1.27c-0.19,0.83-0.96,5.58-2.34,3.66
				c-1.76-2.46-1.48-9.07-0.84-13.15c0.63-0.05,1.22-0.14,1.71-0.27c2.05-0.53,6.94-2.88,10.52-2.89s4.21,0.87,5.39,2.56
				c0.4,0.57-0.22-2.89-4.69-2.89c-4.48,0-6.52,1.42-11.44,2.68c-0.48,0.12-0.94,0.2-1.39,0.24c0.07-0.37,0.13-0.71,0.2-1.02
				c0.81-3.67,3.19-5.23,1.96-5.98c-1.22-0.75-1.96,1.29-1.96,1.29c-0.99,1.98-1.7,3.88-2.2,5.67c-1.11-0.14-2.03-0.46-2.7-0.73
				c2-7.86,9.13-13.66,17.61-13.66c10.03,0,18.17,8.14,18.17,18.17c0,1.16-0.1,2.29-0.31,3.38C58.84,42.53,57.94,43.08,56.74,43.71z
				"/>
		</g>
	</g>
	<g>
		<g>
			<path class="st1" d="M92.54,31.52h22.31v6.19h-7.23v22.78h-7.81V37.7h-7.27C92.54,37.7,92.54,31.52,92.54,31.52z"/>
			<path class="st1" d="M129.6,60.48l-4.93-13.1v13.1h-7.48V31.52h7.23l8.03,21.27l8.03-21.27h7.19v28.97h-7.48v-13.1l-4.93,13.1
				C135.25,60.48,129.6,60.48,129.6,60.48z"/>
			<path class="st1" d="M161.91,60.99c-7.05,0-10.9-3.67-10.9-8.78v-0.58h7.77v0.64c0,1.69,1.05,2.85,3.13,2.85s3.13-1.15,3.13-2.85
				c0-1.69-0.97-2.7-3.74-3.24l-2.19-0.47c-4.96-0.97-8.35-3.63-8.35-8.92c0-4.96,3.88-8.63,10.47-8.63c6.8,0,10.47,3.82,10.47,8.28
				v0.5h-7.77v-0.5c0-1.47-0.97-2.37-2.7-2.37c-1.76,0-2.7,0.9-2.7,2.37c0,1.62,1.08,2.52,3.85,3.1l2.19,0.39
				c5.25,1.08,8.24,3.99,8.24,9.14C172.81,57.13,169.17,60.99,161.91,60.99z"/>
			<path class="st1" d="M196.31,57.5c-2.05,2.34-5.11,3.49-9,3.49s-6.91-1.15-8.96-3.49c-2.37-2.7-3.16-6.55-3.16-11.52
				c0-4.89,0.79-8.78,3.16-11.48c2.05-2.34,5.08-3.49,8.96-3.49s6.94,1.15,9,3.49c2.34,2.7,3.13,6.59,3.13,11.48
				C199.44,50.95,198.64,54.8,196.31,57.5z M190.48,38.79c-0.76-1.08-1.76-1.55-3.16-1.55s-2.37,0.47-3.13,1.55
				c-0.9,1.3-1.19,3.31-1.19,7.19c0,3.96,0.29,5.93,1.19,7.27c0.76,1.08,1.73,1.55,3.13,1.55s2.41-0.47,3.16-1.55
				c0.87-1.33,1.15-3.31,1.15-7.27C191.62,42.1,191.34,40.08,190.48,38.79z"/>
			<path class="st1" d="M202.64,31.52h7.81v22.82h11.26v6.15h-19.07V31.52z"/>
			<path class="st1" d="M222.86,49.65V31.52h7.77v18.6c0,3.28,1.37,4.68,3.78,4.68c2.41,0,3.78-1.4,3.78-4.68v-18.6h7.77v18.13
				c0,7.02-3.67,11.34-11.55,11.34C226.53,60.99,222.86,56.67,222.86,49.65z"/>
			<path class="st1" d="M248.16,31.52h22.31v6.19h-7.23v22.78h-7.81V37.7h-7.27V31.52z"/>
			<path class="st1" d="M280.6,60.48h-7.81V31.52h7.81V60.48z"/>
			<path class="st1" d="M304.89,57.5c-2.05,2.34-5.11,3.49-9,3.49c-3.88,0-6.91-1.15-8.96-3.49c-2.37-2.7-3.16-6.55-3.16-11.52
				c0-4.89,0.79-8.78,3.16-11.48c2.05-2.34,5.08-3.49,8.96-3.49c3.88,0,6.94,1.15,9,3.49c2.34,2.7,3.13,6.59,3.13,11.48
				C308.03,50.95,307.23,54.8,304.89,57.5z M299.06,38.79c-0.76-1.08-1.76-1.55-3.16-1.55s-2.37,0.47-3.13,1.55
				c-0.9,1.3-1.19,3.31-1.19,7.19c0,3.96,0.29,5.93,1.19,7.27c0.76,1.08,1.73,1.55,3.13,1.55s2.41-0.47,3.16-1.55
				c0.86-1.33,1.15-3.31,1.15-7.27C300.22,42.1,299.93,40.08,299.06,38.79z"/>
			<path class="st1" d="M318.74,44.65v15.84h-7.52V31.52h7.52l7.19,15.86V31.52h7.52v28.97h-7.52L318.74,44.65z"/>
			<path class="st1" d="M347.71,60.99c-7.05,0-10.9-3.67-10.9-8.78v-0.58h7.77v0.64c0,1.69,1.05,2.85,3.13,2.85s3.13-1.15,3.13-2.85
				c0-1.69-0.97-2.7-3.74-3.24l-2.19-0.47c-4.96-0.97-8.35-3.63-8.35-8.92c0-4.96,3.88-8.63,10.47-8.63c6.8,0,10.47,3.82,10.47,8.28
				v0.5h-7.77v-0.5c0-1.47-0.97-2.37-2.7-2.37c-1.76,0-2.7,0.9-2.7,2.37c0,1.62,1.08,2.52,3.85,3.1l2.19,0.39
				c5.25,1.08,8.24,3.99,8.24,9.14C358.61,57.13,354.98,60.99,347.71,60.99z"/>
		</g>
	</g>
</g>
</svg>
